<?xml version="1.0" encoding="UTF-8" standalone="no"?>
<!-- Created with Inkscape (http://www.inkscape.org/) -->

<svg
   width="500"
   height="500"
   viewBox="-250 -250 500 500"
   version="1.1"
   id="svg9889"
   xmlns="http://www.w3.org/2000/svg"
   xmlns:svg="http://www.w3.org/2000/svg">
  <defs
     id="defs9886" />
  <g
     id="book-size-middle">
    <path
       d="m -223.9375,15.474836 v -31.210833 l 10.07499,0.0165 v 31.252953 z m 437.79978,0.207667 v -31.301822 l 10.07522,-0.0165 v 31.371821 z"
       style="clip-rule:evenodd;display:inline;fill:#000000;fill-rule:evenodd;stroke:none;stroke-width:0.624392;image-rendering:optimizeQuality;shape-rendering:geometricPrecision;text-rendering:geometricPrecision"
       id="path4868" />
    <rect
       style="clip-rule:evenodd;fill:#fff6d5;fill-opacity:1;fill-rule:evenodd;stroke:none;stroke-width:1.32863;stroke-linejoin:round;stroke-opacity:1;paint-order:stroke markers fill;image-rendering:optimizeQuality;shape-rendering:geometricPrecision;text-rendering:geometricPrecision"
       id="rect9804"
       width="427.72479"
       height="31.153225"
       x="-213.86252"
       y="-15.619275" />
  </g>
  <g
     id="book-size-top">
    <path
       style="clip-rule:evenodd;fill:#fff6d5;fill-opacity:1;fill-rule:evenodd;stroke:none;stroke-width:0.624396px;stroke-linecap:butt;stroke-linejoin:miter;stroke-opacity:1;image-rendering:optimizeQuality;shape-rendering:geometricPrecision;text-rendering:geometricPrecision"
       d="m -203.86958,-37.495965 -9.99293,-5.807765 63.43551,-59.611 35.49579,0.94187 28.61629,-7.48693 21.90424,-6.94937 25.56579,-1.78467 19.01109,5.19559 10.51724,7.58497 9.20105,12.48778 8.57738,-12.00029 11.20868,-9.01655 21.98795,-4.01445 24.69799,1.76254 26.96329,9.11514 22.45427,4.82614 34.93304,-0.66172 63.1556,59.61099 6.7775,4.874885 c -28.939,-0.187279 -68.43664,8.408279 -99.34208,-0.47242 C 90.380402,-47.785452 54.60214,-54.55053 36.929793,-52.22538 18.655273,-47.185209 7.2693232,-36.583577 -0.31866075,-22.915673 -9.8356566,-42.067694 -26.607977,-52.103913 -50.021577,-53.795834 l -38.513996,5.755368 -62.380327,15.116561 z"
       id="book-size-top-color" />
    <path
       style="fill:#fff6d5;fill-opacity:1;stroke:none;stroke-width:1px;stroke-linecap:butt;stroke-linejoin:miter;stroke-opacity:1"
       d="m -213.86251,-15.7195 v -21.05356 l 59.79298,3.72815 49.54329,-9.43777 32.8004,-7.88965 31.58563,-2.04678 26.91733,11.60218 11.64495,12.9269 23.23547,-16.86812 20.87776,-6.42445 19.32611,-0.72532 47.74417,9.64531 38.4795,9.14893 65.77763,-3.65938 v 21.15336 l -427.72523,4.2e-4"
       id="path1382" />
    <path
       d="m 213.86271,-43.30369 -63.15562,-59.61099 c -8.862,1.86647 -19.12437,2.79864 -30.5988,2.79864 -11.28729,0 -23.60115,-2.70495 -36.84859,-7.92865 -13.33972,-5.31762 -25.7475,-7.92982 -37.22193,-7.92982 -20.43012,0 -34.70318,7.27636 -42.91289,21.82931 l 2.51875,59.05122 c 8.86317,-14.08686 23.69601,-21.08334 44.49852,-21.08334 17.72517,0 36.38227,3.2659 56.1601,9.8888 19.77665,6.53062 35.72904,9.79534 47.94944,9.79534 16.41942,0 36.28976,-2.23886 59.61102,-6.81051 z m 0,27.68399 v -21.15336 c -9.14188,1.86554 -28.82602,3.82449 -59.05124,6.06335 -12.59398,0.18738 -29.01246,-2.98483 -49.34888,-9.32807 -20.24368,-6.34443 -38.71482,-9.51546 -55.32044,-9.51546 -22.57528,0 -39.27365,9.98157 -50.00211,30.0381 -10.72846,-20.05653 -27.42658,-30.03808 -50.0021,-30.03808 -16.60562,0 -35.07653,3.17101 -55.32044,9.51544 -20.33643,6.34324 -36.7549,9.51545 -49.34865,9.32807 -19.87057,-0.18619 -39.64817,-2.23886 -59.33136,-6.06335 v 21.05358 l -10.075,-0.0165 v -28.40669 l 69.9659,-64.18146 c 10.9149,2.51875 22.48181,3.8245 34.70318,3.8245 8.02257,0 18.93723,-2.70519 32.74421,-8.11626 13.89949,-5.31738 27.33313,-8.02233 40.48665,-8.02233 22.38909,0 37.78171,8.48842 46.17761,25.37392 8.02234,-16.8855 23.32244,-25.37392 45.89773,-25.37392 13.15375,0 26.58716,2.70495 40.48665,8.02233 13.80698,5.41107 24.72187,8.11626 32.74421,8.11626 12.22134,0 23.88197,-1.30575 34.98306,-3.8245 l 69.68625,64.18146 v 28.50611 z M -2.84479,-94.14524 c -8.39591,-14.55296 -22.76266,-21.82932 -43.19278,-21.82932 -11.47443,0 -23.78852,2.61221 -37.03573,7.92983 -13.24626,5.22369 -25.46761,7.92864 -36.75466,7.92864 -11.47444,0 -21.73704,-0.93217 -30.59904,-2.79864 l -63.43551,59.611 c 23.50863,4.57165 43.47148,6.81051 59.8909,6.81051 12.22041,0 28.1728,-3.26472 47.94945,-9.79535 19.77783,-6.62289 38.43517,-9.88879 56.1601,-9.88879 20.80251,0 35.63535,6.99647 44.49852,21.08334 z"
       style="clip-rule:evenodd;display:inline;fill:#000000;fill-rule:evenodd;stroke:none;stroke-width:0.624396;image-rendering:optimizeQuality;shape-rendering:geometricPrecision;text-rendering:geometricPrecision"
       id="path4583" />
  </g>
  <g
     id="book-size-bottom">
    <rect
       style="clip-rule:evenodd;fill:#fff6d5;fill-rule:evenodd;stroke:none;stroke-width:1.32864;stroke-linejoin:round;stroke-opacity:1;paint-order:stroke markers fill;image-rendering:optimizeQuality;shape-rendering:geometricPrecision;text-rendering:geometricPrecision"
       id="rect9266"
       width="427.72565"
       height="39.58223"
       x="-213.8625"
       y="15.533909" />
    <path
       d="m 223.9384,15.73141 v 32.20085 l 15.29988,21.08335 V 80.76992 H 46.038051 c -15.672274,5.69096 -30.971239,8.4896 -45.89777364,8.4896 -14.92654536,0 -30.31893936,-2.79864 -46.17765336,-8.4896 H -238.95772 V 69.01561 L -223.9375,47.93226 V 15.47484 l 10.07504,0.059 V 55.11603 H -41.6531 c 8.862941,-12.40778 22.856136,-18.65828 41.79337736,-18.65828 18.93725064,0 32.83793664,6.2505 41.51373764,18.65828 l 172.209135,2e-5 V 15.68252 Z"
       style="clip-rule:evenodd;display:inline;fill:#000000;fill-rule:evenodd;stroke:none;stroke-width:0.624399;stroke-opacity:1;image-rendering:optimizeQuality;shape-rendering:geometricPrecision;text-rendering:geometricPrecision"
       id="path4714" />
  </g>
</svg>
