<?xml version="1.0" encoding="UTF-8" standalone="no"?>
<!-- Created with Inkscape (http://www.inkscape.org/) -->

<svg
   width="76.763733mm"
   height="17.829599mm"
   viewBox="0 0 76.763733 17.829599"
   version="1.1"
   id="svg14938"
   sodipodi:docname="side_coin.svg"
   inkscape:version="1.2 (dc2aedaf03, 2022-05-15)"
   xmlns:inkscape="http://www.inkscape.org/namespaces/inkscape"
   xmlns:sodipodi="http://sodipodi.sourceforge.net/DTD/sodipodi-0.dtd"
   xmlns="http://www.w3.org/2000/svg"
   xmlns:svg="http://www.w3.org/2000/svg">
  <sodipodi:namedview
     id="namedview9"
     pagecolor="#ffffff"
     bordercolor="#000000"
     borderopacity="0.25"
     inkscape:showpageshadow="2"
     inkscape:pageopacity="0.0"
     inkscape:pagecheckerboard="0"
     inkscape:deskcolor="#d1d1d1"
     inkscape:document-units="mm"
     showgrid="false"
     inkscape:zoom="0.72515432"
     inkscape:cx="144.79677"
     inkscape:cy="-76.535433"
     inkscape:window-width="1920"
     inkscape:window-height="1001"
     inkscape:window-x="-9"
     inkscape:window-y="-9"
     inkscape:window-maximized="1"
     inkscape:current-layer="svg14938" />
  <defs
     id="defs14935" />
  <g
     id="layer1"
     transform="translate(-66.618134,-139.5852)">
    <rect
       style="fill:#ffc850;fill-opacity:1;fill-rule:evenodd;stroke:none;stroke-width:0.756534;stroke-linejoin:round;paint-order:stroke markers fill"
       id="rect9944"
       width="38.38781"
       height="13.454987"
       x="68.826187"
       y="141.86676" />
    <rect
       style="fill:#ffdc64;fill-opacity:1;fill-rule:evenodd;stroke:none;stroke-width:0.562999;stroke-linejoin:round;paint-order:stroke markers fill"
       id="rect11825"
       width="37.404446"
       height="14.072878"
       x="102.98436"
       y="141.63358" />
    <rect
       style="fill:#fff082;fill-opacity:1;fill-rule:evenodd;stroke:none;stroke-width:0.562999;stroke-linejoin:round;paint-order:stroke markers fill"
       id="rect14817"
       width="9.5115471"
       height="10.607676"
       x="125.56148"
       y="143.24924" />
    <path
       d="m 133.97,157.4148 5.02825,-0.0123 c 2.41723,-0.006 4.38362,-1.96638 4.38362,-4.38361 v -9.05007 c 0,-2.41724 -1.96639,-4.38362 -4.38362,-4.38362 H 71.123625 c -2.41723,0 -4.38362,1.96638 -4.38362,4.38362 0.0215,3.058 -0.12221,8.83657 -0.12187,10.23682 0,1.88653 1.67147,3.20732 3.34328,3.20732 z M 70.390925,143.80228 c 0,-0.0778 0.0632,-0.14129 0.14129,-0.14129 h 67.874625 c 0.078,0 0.14129,0.0638 0.14129,0.14129 v 9.05007 c 0,0.0778 -0.0632,0.14129 -0.14129,0.14129 H 70.532215 c -0.078,0 -0.14129,-0.0638 -0.14129,-0.14129 z"
       style="display:inline;stroke-width:0.264583"
       id="path1131" />
  </g>
</svg>
