<?xml version="1.0" encoding="UTF-8" standalone="no"?>
<!-- Created with Inkscape (http://www.inkscape.org/) -->

<svg
   width="76.60981mm"
   height="76.256752mm"
   viewBox="0 0 76.60981 76.256752"
   version="1.1"
   id="svg5"
   xml:space="preserve"
   sodipodi:docname="facing_coin.svg"
   inkscape:version="1.2 (dc2aedaf03, 2022-05-15)"
   xmlns:inkscape="http://www.inkscape.org/namespaces/inkscape"
   xmlns:sodipodi="http://sodipodi.sourceforge.net/DTD/sodipodi-0.dtd"
   xmlns="http://www.w3.org/2000/svg"
   xmlns:svg="http://www.w3.org/2000/svg"><sodipodi:namedview
     id="namedview7"
     pagecolor="#505050"
     bordercolor="#eeeeee"
     borderopacity="1"
     inkscape:showpageshadow="0"
     inkscape:pageopacity="0"
     inkscape:pagecheckerboard="0"
     inkscape:deskcolor="#505050"
     inkscape:document-units="mm"
     showgrid="false"
     inkscape:zoom="0.72515432"
     inkscape:cx="296.48862"
     inkscape:cy="130.31709"
     inkscape:window-width="1920"
     inkscape:window-height="1001"
     inkscape:window-x="-9"
     inkscape:window-y="-9"
     inkscape:window-maximized="1"
     inkscape:current-layer="layer1" /><defs
     id="defs2"><clipPath
       clipPathUnits="userSpaceOnUse"
       id="clipPath232"><ellipse
         style="fill:#000000;stroke-width:0.261776"
         id="ellipse234"
         cx="127.21799"
         cy="159.50854"
         rx="38.310814"
         ry="38.128376" /></clipPath></defs><g
     inkscape:label="Calque 1"
     inkscape:groupmode="layer"
     id="layer1"
     transform="translate(-64.826096,-105.32611)"><g
       id="g470"
       clip-path="url(#clipPath232)"
       transform="translate(-24.081077,-16.054054)"><path
         style="fill:#ffdc64;stroke-width:0.264583"
         d="m 113.62135,84.860396 v -9.050073 c 0,-1.249363 -1.01309,-2.262452 -2.26246,-2.262452 H 43.484009 c -1.249363,0 -2.262452,1.013089 -2.262452,2.262452 v 9.050073 c 0,1.249362 1.013089,2.262452 2.262452,2.262452 h -9.049808 c -1.249363,0 -2.262452,1.013089 -2.262452,2.262452 v 9.050072 c 0,1.249363 1.013089,2.262448 2.262452,2.262448 h 4.524904 c -1.249363,0 -2.262452,1.01309 -2.262452,2.26246 v 9.05007 c 0,1.24936 1.013089,2.26245 2.262452,2.26245 h -4.524904 c -1.249363,0 -2.262452,1.01309 -2.262452,2.26245 v 9.05008 c 0,1.24936 1.013089,2.26245 2.262452,2.26245 h 9.050072 c -1.249362,0 -2.262452,1.01309 -2.262452,2.26245 v 9.05007 c 0,1.24937 1.01309,2.26246 2.262452,2.26246 h -9.050072 c -1.249363,0 -2.262452,1.01308 -2.262452,2.26245 v 9.05007 c 0,1.24936 1.013089,2.26245 2.262452,2.26245 h 4.524904 c -1.249363,0 -2.262452,1.01309 -2.262452,2.26245 v 9.05008 c 0,1.24936 1.013089,2.26245 2.262452,2.26245 h -4.524904 c -1.249363,0 -2.262452,1.01309 -2.262452,2.26245 v 9.05007 c 0,1.24937 1.013089,2.26246 2.262452,2.26246 h 9.050072 c -1.249362,0 -2.262452,1.01309 -2.262452,2.26245 v 9.05007 c 0,1.24936 1.01309,2.26245 2.262452,2.26245 h 67.874617 c 1.24937,0 2.26246,-1.01309 2.26246,-2.26245 v -63.34998 c 0,-1.24936 -1.01309,-2.26245 -2.26246,-2.26245 h -9.05007 c 1.24936,0 2.26245,-1.01309 2.26245,-2.26245 v -9.05008 c 0,-1.24936 -1.01309,-2.26245 -2.26245,-2.26245 h 4.5249 c 1.24937,0 2.26246,-1.01309 2.26246,-2.26245 v -9.05007 c 0,-1.24937 -1.01309,-2.26246 -2.26246,-2.26246 h -4.5249 c 1.24936,0 2.26245,-1.013085 2.26245,-2.262448 V 89.3853 c 0,-1.249363 -1.01309,-2.262452 -2.26245,-2.262452 h 9.05007 c 1.24937,0 2.26246,-1.01309 2.26246,-2.262452 z"
         id="path70" /><path
         style="fill:#ffc850;stroke-width:0.264583"
         d="m 111.35889,127.84778 h -9.05007 c 1.24936,0 2.26245,-1.01309 2.26245,-2.26245 v -2.56487 c -12.207608,7.58322 -20.36233,21.07406 -20.36233,36.50218 0,15.22015 7.931414,28.56124 19.86465,36.19976 h 7.2853 c 1.24937,0 2.26246,-1.01309 2.26246,-2.26245 v -63.34972 c 0,-1.24963 -1.01309,-2.26245 -2.26246,-2.26245 z"
         id="path72" /><g
         id="g80"
         transform="matrix(0.26458333,0,0,0.26458333,30.050584,66.901802)">
	<path
   style="fill:#fff082"
   d="m 264.551,179.04 h -17.102 c -4.722,0 -8.551,-3.829 -8.551,-8.551 v -34.205 c 0,-4.722 3.829,-8.551 8.551,-8.551 h 17.102 c 4.722,0 8.551,3.829 8.551,8.551 v 34.205 c 0,4.722 -3.828,8.551 -8.551,8.551 z"
   id="path74" />
	<path
   style="fill:#fff082"
   d="m 247.449,127.733 h -17.102 c -4.722,0 -8.551,-3.829 -8.551,-8.551 V 84.977 c 0,-4.722 3.829,-8.551 8.551,-8.551 h 17.102 c 4.722,0 8.551,3.829 8.551,8.551 v 34.205 c 0,4.722 -3.829,8.551 -8.551,8.551 z"
   id="path76" />
	<path
   style="fill:#fff082"
   d="m 247.449,230.347 h -17.102 c -4.722,0 -8.551,-3.829 -8.551,-8.551 v -34.205 c 0,-4.722 3.829,-8.551 8.551,-8.551 h 17.102 c 4.722,0 8.551,3.829 8.551,8.551 v 34.205 c 0,4.722 -3.829,8.551 -8.551,8.551 z"
   id="path78" />
</g><path
         style="fill:#ffc850;stroke-width:0.264583"
         d="m 63.846606,87.122848 h 9.050073 c -1.249362,0 -2.262452,-1.01309 -2.262452,-2.262452 v -9.050073 c 0,-1.249363 1.01309,-2.262452 2.262452,-2.262452 h -29.41267 c -1.249363,0 -2.262452,1.013089 -2.262452,2.262452 v 9.050073 c 0,1.249362 1.013089,2.262452 2.262452,2.262452 h -9.049808 c -1.249363,0 -2.262452,1.013089 -2.262452,2.262452 v 9.050072 c 0,1.249363 1.013089,2.262448 2.262452,2.262448 h 4.524904 c -1.249363,0 -2.262452,1.01309 -2.262452,2.26246 v 9.05007 c 0,1.24936 1.013089,2.26245 2.262452,2.26245 h -4.524904 c -1.249363,0 -2.262452,1.01309 -2.262452,2.26245 v 9.05008 c 0,1.24936 1.013089,2.26245 2.262452,2.26245 h 9.050072 c -1.249362,0 -2.262452,1.01309 -2.262452,2.26245 v 9.05007 c 0,1.24937 1.01309,2.26246 2.262452,2.26246 h -9.050072 c -1.249363,0 -2.262452,1.01308 -2.262452,2.26245 v 9.05007 c 0,1.24936 1.013089,2.26245 2.262452,2.26245 h 4.524904 c -1.249363,0 -2.262452,1.01309 -2.262452,2.26245 v 9.05008 c 0,1.24936 1.013089,2.26245 2.262452,2.26245 h -4.524904 c -1.249363,0 -2.262452,1.01309 -2.262452,2.26245 v 9.05007 c 0,1.24937 1.013089,2.26246 2.262452,2.26246 h 9.050072 c -1.249362,0 -2.262452,1.01309 -2.262452,2.26245 v 9.05007 c 0,1.24936 1.01309,2.26245 2.262452,2.26245 h 29.412406 c -1.249362,0 -2.262452,-1.01309 -2.262452,-2.26245 v -9.05007 c 0,-1.24936 1.01309,-2.26245 2.262452,-2.26245 h -9.050073 c -1.249362,0 -2.262452,-1.01309 -2.262452,-2.26246 v -9.05007 c 0,-1.24936 1.01309,-2.26245 2.262452,-2.26245 h 4.524905 c -1.249363,0 -2.262452,-1.01309 -2.262452,-2.26245 v -9.05008 c 0,-1.24936 1.013089,-2.26245 2.262452,-2.26245 h -4.524905 c -1.249362,0 -2.262452,-1.01309 -2.262452,-2.26245 v -9.05007 c 0,-1.24937 1.01309,-2.26245 2.262452,-2.26245 h 9.050073 c -1.249362,0 -2.262452,-1.01309 -2.262452,-2.26246 v -9.05007 c 0,-1.24936 1.01309,-2.26245 2.262452,-2.26245 h -9.050073 c -1.249362,0 -2.262452,-1.01309 -2.262452,-2.26245 v -9.05008 c 0,-1.24936 1.01309,-2.26245 2.262452,-2.26245 h 4.524905 c -1.249363,0 -2.262452,-1.01309 -2.262452,-2.26245 v -9.05007 c 0,-1.24937 1.013089,-2.26246 2.262452,-2.26246 h -4.524905 c -1.249362,0 -2.262452,-1.013085 -2.262452,-2.262448 V 89.3853 c 0,-1.249363 1.012825,-2.262452 2.262452,-2.262452 z"
         id="path82" /><path
         style="fill:#fff082;stroke-width:0.264583"
         d="m 104.57127,87.122848 h -4.5249 c -1.249364,0 -2.262454,-1.01309 -2.262454,-2.262452 v -9.050073 c 0,-1.249363 1.01309,-2.262452 2.262454,-2.262452 h 4.5249 c 1.24937,0 2.26245,1.013089 2.26245,2.262452 v 9.050073 c 2.7e-4,1.249362 -1.01282,2.262452 -2.26245,2.262452 z"
         id="path84" /><circle
         style="fill:#ffdc64;stroke-width:0.264583"
         cx="127.19633"
         cy="159.52263"
         r="36.19976"
         id="circle86" /><circle
         style="fill:#fff082;stroke-width:0.264583"
         cx="127.19633"
         cy="159.52263"
         r="27.149954"
         id="circle88" /><path
         d="m 127.19632,121.20171 c -6.52171,0 -12.66719,1.63936 -18.04855,4.5249 h -2.46248 c 0.001,-0.0474 0.007,-0.0937 0.007,-0.14128 v -9.05008 c 0,-0.0479 -0.006,-0.0942 -0.007,-0.14128 h 0.14843 c 2.41724,0 4.38362,-1.96639 4.38362,-4.38362 v -9.05007 c 0,-2.41724 -1.96638,-4.38362 -4.38362,-4.38362 h -0.14843 c 0.001,-0.04736 0.007,-0.09366 0.007,-0.141288 V 89.3853 c 0,-0.04789 -0.006,-0.09419 -0.007,-0.141288 h 4.67334 c 2.41723,0 4.38362,-1.966383 4.38362,-4.383616 v -9.050073 c 0,-2.417234 -1.96639,-4.383617 -4.38362,-4.383617 H 43.484009 c -2.417233,0 -4.383617,1.966383 -4.383617,4.383617 v 9.050073 c 0,0.04789 0.0056,0.09419 0.0071,0.141287 h -4.673335 c -2.417234,0 -4.383617,1.966383 -4.383617,4.383617 v 9.050072 c 0,2.417238 1.966383,4.383618 4.383617,4.383618 h 0.148431 c -0.0013,0.0471 -0.0071,0.0937 -0.0071,0.14129 v 9.05007 c 0,0.0479 0.0056,0.0942 0.0071,0.14129 h -0.148431 c -2.417234,0 -4.383617,1.96638 -4.383617,4.38361 v 9.05008 c 0,2.41723 1.966383,4.38361 4.383617,4.38361 h 4.673335 c -0.0013,0.0474 -0.0071,0.0937 -0.0071,0.14129 v 9.05007 c 0,0.0479 0.0056,0.0942 0.0071,0.14129 h -4.673335 c -2.417234,0 -4.383617,1.96638 -4.383617,4.38362 v 9.05007 c 0,2.41723 1.966383,4.38362 4.383617,4.38362 h 0.148431 c -0.0013,0.0471 -0.0071,0.0937 -0.0071,0.14128 v 9.05008 c 0,0.0479 0.0056,0.0942 0.0071,0.14128 h -0.148431 c -2.417234,0 -4.383617,1.96639 -4.383617,4.38336 v 9.05007 c 0,2.41723 1.966383,4.38362 4.383617,4.38362 h 4.673335 c -0.0013,0.0471 -0.0071,0.0937 -0.0071,0.14128 v 9.05008 c 0,2.41723 1.966384,4.38361 4.383617,4.38361 h 67.874621 c 1.53114,0 2.87919,-0.79057 3.66342,-1.98305 3.8264,1.28535 7.92004,1.98305 12.17401,1.98305 21.13015,0 38.32092,-17.19077 38.32092,-38.32092 0,-21.13016 -17.1905,-38.32093 -38.32066,-38.32093 z m -20.36233,-18.38299 c 0.0781,0 0.14129,0.0635 0.14129,0.14129 v 9.05007 c 0,0.0778 -0.0632,0.14129 -0.14129,0.14129 h -4.5249 -63.349985 c -0.07805,0 -0.141288,-0.0638 -0.141288,-0.14129 v -9.05007 c 0,-0.0778 0.06324,-0.14129 0.141288,-0.14129 H 102.30882 Z M 43.342721,75.810323 c 0,-0.07779 0.06324,-0.141288 0.141288,-0.141288 h 67.874621 c 0.078,0 0.14129,0.06377 0.14129,0.141288 v 9.050073 c 0,0.07779 -0.0632,0.141287 -0.14129,0.141287 h -9.05007 -58.824551 c -0.07805,0 -0.141288,-0.06377 -0.141288,-0.141287 z m -8.90852,22.766337 c -0.07805,0 -0.141288,-0.06377 -0.141288,-0.141288 V 89.3853 c 0,-0.07779 0.06324,-0.141288 0.141288,-0.141288 h 9.050072 58.824817 c 0.0781,0 0.14128,0.06377 0.14128,0.141288 v 9.050072 c 0,0.07779 -0.0632,0.141288 -0.14128,0.141288 H 38.959105 Z m 0,27.14995 c -0.07805,0 -0.141288,-0.0638 -0.141288,-0.14128 v -9.05008 c 0,-0.0778 0.06324,-0.14128 0.141288,-0.14128 h 4.524904 63.349715 c 0.0781,0 0.14129,0.0638 0.14129,0.14128 v 9.05008 c 0,0.0778 -0.0632,0.14128 -0.14129,0.14128 H 43.484009 Z m 68.393999,4.24207 c -3.200402,2.64345 -5.963446,5.79702 -8.168748,9.33265 H 43.484009 c -0.07805,0 -0.141288,-0.0638 -0.141288,-0.14129 v -9.05007 c 0,-0.0778 0.06324,-0.14129 0.141288,-0.14129 h 58.824811 z m -68.393999,22.90789 c -0.07805,0 -0.141288,-0.0638 -0.141288,-0.14129 v -9.05007 c 0,-0.0778 0.06324,-0.14129 0.141288,-0.14129 h 57.935811 c -1.350433,2.93158 -2.342091,6.06134 -2.916237,9.33265 h -50.49467 z m 55.070374,13.57497 h -50.54547 c -0.07805,0 -0.141288,-0.0638 -0.141288,-0.14128 v -9.05008 c 0,-0.0778 0.06324,-0.14128 0.141288,-0.14128 h 49.993814 c -0.04948,0.79533 -0.07752,1.59649 -0.07752,2.404 0,2.36511 0.216958,4.68048 0.629179,6.92864 z m -55.070374,13.57472 c -0.07805,0 -0.141288,-0.0638 -0.141288,-0.14129 v -9.05007 c 0,-0.0778 0.06324,-0.14129 0.141288,-0.14129 h 56.103836 c 1.014942,3.32422 2.47015,6.45768 4.298157,9.33265 H 43.484009 Z m 9.049808,13.57497 c -0.07805,0 -0.141288,-0.0632 -0.141288,-0.14128 v -9.05008 c 0,-0.0778 0.06324,-0.14128 0.141288,-0.14128 h 54.299907 c 0.05768,0 0.1143,-0.004 0.170921,-0.008 3.246173,3.83117 7.228413,7.0194 11.728183,9.34138 H 43.484009 Z m 83.712311,0 c -18.79123,0 -34.07886,-15.28762 -34.07886,-34.07886 0,-18.79124 15.28763,-34.07886 34.07886,-34.07886 18.79124,0 34.07886,15.28762 34.07886,34.07886 0,18.79124 -15.28788,34.07886 -34.07886,34.07886 z"
         id="path90"
         style="stroke-width:0.264583" /><path
         d="m 127.19632,130.25152 c -16.14011,0 -29.270851,13.131 -29.270851,29.27085 0,16.13985 13.131001,29.27086 29.270851,29.27086 16.13985,0 29.27086,-13.13101 29.27086,-29.27086 0,-16.13985 -13.13075,-29.27085 -29.27086,-29.27085 z m 0,54.29991 c -13.80093,0 -25.02879,-11.22786 -25.02879,-25.02879 0,-13.80093 11.22786,-25.02879 25.02879,-25.02879 13.80093,0 25.02879,11.22786 25.02879,25.02879 0,13.80093 -11.22786,25.02879 -25.02879,25.02879 z"
         id="path92"
         style="stroke-width:0.264583" /><path
         d="m 134.12523,151.88676 c 0,1.17131 0.94959,2.12117 2.12117,2.12117 1.17131,0 2.12116,-0.94959 2.12116,-2.12117 0,-3.99468 -3.83434,-7.22259 -9.05007,-7.91898 v -0.28257 c 0,-1.17131 -0.94959,-2.12117 -2.12117,-2.12117 -1.17131,0 -2.12116,0.94959 -2.12116,2.12117 v 0.28257 c -5.21573,0.69639 -9.05007,3.9243 -9.05007,7.91898 0,5.64991 4.99268,7.84622 9.05007,9.18581 v 9.71258 c -2.91412,-0.54345 -4.80775,-2.15344 -4.80775,-3.62637 0,-1.17131 -0.94959,-2.12117 -2.12116,-2.12117 -1.17131,0 -2.12116,0.94959 -2.12116,2.12117 0,3.99467 3.83434,7.22259 9.05007,7.91897 v 0.28258 c 0,1.17131 0.94959,2.12116 2.12116,2.12116 1.17131,0 2.12117,-0.94959 2.12117,-2.12116 v -0.28258 c 5.21573,-0.69638 9.05007,-3.9243 9.05007,-7.91897 0,-5.64992 -4.99269,-7.84622 -9.05007,-9.18581 v -9.71259 c 2.91385,0.54346 4.80774,2.15345 4.80774,3.62638 z m -13.85782,0 c 0,-1.47293 1.89363,-3.08292 4.80775,-3.62638 v 8.29681 c -3.61897,-1.38113 -4.80775,-2.62996 -4.80775,-4.67043 z m 13.85782,15.27175 c 0,1.47294 -1.89362,3.08293 -4.80774,3.62638 v -8.2968 c 3.61897,1.38086 4.80774,2.62995 4.80774,4.67042 z"
         id="path94"
         style="stroke-width:0.264583" /></g><g
       id="g96"
       transform="matrix(0.26458333,0,0,0.26458333,30.050584,66.901802)">
</g><g
       id="g98"
       transform="matrix(0.26458333,0,0,0.26458333,30.050584,66.901802)">
</g><g
       id="g100"
       transform="matrix(0.26458333,0,0,0.26458333,30.050584,66.901802)">
</g><g
       id="g102"
       transform="matrix(0.26458333,0,0,0.26458333,30.050584,66.901802)">
</g><g
       id="g104"
       transform="matrix(0.26458333,0,0,0.26458333,30.050584,66.901802)">
</g><g
       id="g106"
       transform="matrix(0.26458333,0,0,0.26458333,30.050584,66.901802)">
</g><g
       id="g108"
       transform="matrix(0.26458333,0,0,0.26458333,30.050584,66.901802)">
</g><g
       id="g110"
       transform="matrix(0.26458333,0,0,0.26458333,30.050584,66.901802)">
</g><g
       id="g112"
       transform="matrix(0.26458333,0,0,0.26458333,30.050584,66.901802)">
</g><g
       id="g114"
       transform="matrix(0.26458333,0,0,0.26458333,30.050584,66.901802)">
</g><g
       id="g116"
       transform="matrix(0.26458333,0,0,0.26458333,30.050584,66.901802)">
</g><g
       id="g118"
       transform="matrix(0.26458333,0,0,0.26458333,30.050584,66.901802)">
</g><g
       id="g120"
       transform="matrix(0.26458333,0,0,0.26458333,30.050584,66.901802)">
</g><g
       id="g122"
       transform="matrix(0.26458333,0,0,0.26458333,30.050584,66.901802)">
</g><g
       id="g124"
       transform="matrix(0.26458333,0,0,0.26458333,30.050584,66.901802)">
</g></g></svg>
