<?xml version="1.0" encoding="UTF-8" standalone="no"?>
<!-- Created with Inkscape (http://www.inkscape.org/) -->

<svg
   width="210mm"
   height="297mm"
   viewBox="0 0 210 297"
   version="1.1"
   id="svg14938"
   xmlns="http://www.w3.org/2000/svg"
   xmlns:svg="http://www.w3.org/2000/svg">
  <defs
     id="defs14935" />
  <g
     id="layer1">
    <rect
       style="fill:#ffc850;fill-opacity:1;fill-rule:evenodd;stroke:none;stroke-width:0.756534;stroke-linejoin:round;paint-order:stroke markers fill"
       id="rect9944"
       width="38.38781"
       height="13.454987"
       x="68.826187"
       y="141.86676" />
    <rect
       style="fill:#ffdc64;fill-opacity:1;fill-rule:evenodd;stroke:none;stroke-width:0.562999;stroke-linejoin:round;paint-order:stroke markers fill"
       id="rect11825"
       width="37.404446"
       height="14.072878"
       x="102.98436"
       y="141.63358" />
    <rect
       style="fill:#fff082;fill-opacity:1;fill-rule:evenodd;stroke:none;stroke-width:0.562999;stroke-linejoin:round;paint-order:stroke markers fill"
       id="rect14817"
       width="9.5115471"
       height="10.607676"
       x="125.56148"
       y="143.24924" />
    <path
       d="m 133.97,157.4148 5.02825,-0.0123 c 2.41723,-0.006 4.38362,-1.96638 4.38362,-4.38361 v -9.05007 c 0,-2.41724 -1.96639,-4.38362 -4.38362,-4.38362 H 71.123625 c -2.41723,0 -4.38362,1.96638 -4.38362,4.38362 0.0215,3.058 -0.12221,8.83657 -0.12187,10.23682 0,1.88653 1.67147,3.20732 3.34328,3.20732 z M 70.390925,143.80228 c 0,-0.0778 0.0632,-0.14129 0.14129,-0.14129 h 67.874625 c 0.078,0 0.14129,0.0638 0.14129,0.14129 v 9.05007 c 0,0.0778 -0.0632,0.14129 -0.14129,0.14129 H 70.532215 c -0.078,0 -0.14129,-0.0638 -0.14129,-0.14129 z"
       style="display:inline;stroke-width:0.264583"
       id="path1131" />
  </g>
</svg>
