<?xml version="1.0" standalone="no"?>
<!DOCTYPE svg PUBLIC "-//W3C//DTD SVG 20010904//EN"
 "http://www.w3.org/TR/2001/REC-SVG-20010904/DTD/svg10.dtd">
<svg version="1.0" xmlns="http://www.w3.org/2000/svg"
 width="86.000000pt" height="179.000000pt" viewBox="0 0 86.000000 179.000000"
 preserveAspectRatio="xMidYMid meet" transform="scale(-1,1)">

<g transform="translate(0.000000,179.000000) scale(0.100000,-0.100000)"
fill="#ffffff" stroke="none">
<path d="M710 1703 c1 -24 62 -136 78 -141 20 -6 14 26 -19 94 -28 61 -59 85
-59 47z"/>
<path d="M320 1635 c-6 -8 -9 -22 -6 -33 8 -23 292 -247 314 -247 32 0 22 26
-30 81 -63 68 -236 214 -253 214 -7 0 -18 -7 -25 -15z"/>
<path d="M343 1234 c-9 -23 14 -39 83 -58 73 -19 104 -20 104 -3 0 15 -28 30
-109 58 -66 23 -70 23 -78 3z"/>
<path d="M40 938 c0 -26 0 -26 113 -33 61 -3 170 -5 242 -3 106 2 130 6 130
18 0 22 -51 29 -277 36 l-208 7 0 -25z"/>
<path d="M455 685 c-88 -19 -205 -65 -205 -81 0 -23 17 -24 95 -4 100 26 185
64 185 84 0 18 3 18 -75 1z"/>
<path d="M539 422 c-26 -20 -95 -82 -153 -137 -109 -102 -128 -136 -79 -143
16 -2 54 28 148 119 122 119 162 169 150 189 -10 15 -17 12 -66 -28z"/>
<path d="M642 195 c-24 -50 -27 -71 -12 -80 15 -9 38 12 61 58 23 43 19 67 -9
67 -12 0 -26 -16 -40 -45z"/>
</g>
</svg>
